<svg width="10" height="24" viewBox="0 0 10 24" fill="none" xmlns="http://www.w3.org/2000/svg">
<g clip-path="url(#clip0_842_2715)">
<path d="M9.83327 11.9635C9.8341 12.1145 9.80678 12.2642 9.7529 12.404C9.69902 12.5438 9.61962 12.6709 9.51927 12.7781L3.02261 19.6626C2.81871 19.8786 2.54218 20 2.25383 20C1.96549 20 1.68895 19.8786 1.48506 19.6626C1.28117 19.4465 1.16663 19.1535 1.16663 18.8479C1.16663 18.5423 1.28117 18.2493 1.48506 18.0332L7.22378 11.9635L1.49589 5.89374C1.3185 5.67424 1.22581 5.39189 1.23633 5.10312C1.24686 4.81434 1.35983 4.54041 1.55267 4.33607C1.7455 4.13172 2.004 4.01201 2.27651 4.00086C2.54902 3.9897 2.81547 4.08792 3.0226 4.2759L9.51927 11.1603C9.71931 11.374 9.83208 11.6625 9.83327 11.9635Z" fill="#999999"/>
</g>
<defs>
<clipPath id="clip0_842_2715">
<rect width="24" height="10" fill="white" transform="translate(0 24) rotate(-90)"/>
</clipPath>
</defs>
</svg>
