<svg width="168" height="168" viewBox="0 0 168 168" fill="none" xmlns="http://www.w3.org/2000/svg">
<circle opacity="0.1" cx="84" cy="84" r="84" fill="#FFB103"/>
<circle cx="84" cy="84" r="72" fill="#FFB103"/>
<g clip-path="url(#clip0_1599_1099)">
<path d="M67.3982 66.3465C67.3982 57.0996 74.8463 49.5757 84 49.5757C93.1536 49.5757 100.602 57.0996 100.602 66.3465C100.602 75.5934 93.1536 83.1174 84 83.1174C74.8463 83.1174 67.3982 75.5934 67.3982 66.3465ZM94.4852 88.4134H73.5147C62.4352 88.4134 53.4178 97.5226 53.4178 108.715C53.4178 114.071 57.7273 118.424 63.0294 118.424H104.971C110.273 118.424 114.582 114.071 114.582 108.715C114.582 97.5226 105.565 88.4134 94.4852 88.4134Z" fill="white" fill-opacity="0.6"/>
</g>
<circle cx="84" cy="84" r="72" fill="black" fill-opacity="0.3"/>
<path d="M77.0536 79.9771H80.0897V88.9835C80.0897 89.8973 80.8306 90.6373 81.7434 90.6373H86.2574C87.1702 90.6373 87.9112 89.8974 87.9112 88.9835V79.9771H90.9462C91.449 79.9771 91.9009 79.6744 92.0943 79.2097C92.2856 78.747 92.1792 78.212 91.8239 77.8568L84.878 70.91C84.3929 70.4258 83.607 70.4258 83.1208 70.91L76.176 77.8568C75.8207 78.212 75.7143 78.7461 75.9066 79.2097C76.0998 79.6734 76.5508 79.9771 77.0536 79.9771Z" fill="white"/>
<path d="M97.5083 83.3525C96.6853 83.3525 96.0176 84.0203 96.0176 84.8442V91.0812C96.0176 92.9496 94.4966 94.4696 92.6282 94.4696H75.3717C73.5032 94.4696 71.9833 92.9496 71.9833 91.0812V84.8442C71.9833 84.0203 71.3146 83.3525 70.4916 83.3525C69.6677 83.3525 69 84.0203 69 84.8442V91.0813C69 94.5946 71.8583 97.453 75.3717 97.453H92.6282C96.1416 97.453 99 94.5946 99 91.0813V84.8442C99 84.0203 98.3322 83.3525 97.5083 83.3525Z" fill="white"/>
<defs>
<clipPath id="clip0_1599_1099">
<rect width="62" height="70" fill="white" transform="translate(53 49)"/>
</clipPath>
</defs>
</svg>
