<svg width="84" height="84" viewBox="0 0 84 84" fill="none" xmlns="http://www.w3.org/2000/svg">
<path d="M68.6 47.25C67.55 47.25 66.85 46.55 66.85 45.5V24.5C66.85 22.05 64.75 20.3 62.65 20.3H21C18.55 20.3 16.8 22.05 16.8 24.5V45.5C16.8 46.2 16.1 47.25 15.05 47.25C14 47.25 13.3 46.55 13.3 45.5V24.5C13.65 20.65 17.15 17.5 21 17.5H62.3C66.5 17.5 70.0001 20.65 70.0001 24.85V45.85C70.0001 46.55 69.3 47.25 68.6 47.25Z" fill="#DDDDDD"/>
<path d="M68.6002 35.7C67.5501 35.7 66.8502 35 66.8502 33.95C66.8502 31.5 64.7501 29.75 62.6501 29.75H21.0001C18.5501 29.75 16.8001 31.85 16.8001 33.95C16.8001 35 16.1001 35.7 15.0501 35.7C14.0001 35.7 13.6501 35 13.6501 33.95C13.6501 29.75 17.1501 26.6 21.0001 26.6H62.3001C66.5001 26.6 69.6501 30.1 69.6501 33.95C70.0001 35 69.3001 35.7 68.6002 35.7Z" fill="#DDDDDD"/>
<path d="M68.6 45.15C67.55 45.15 66.85 44.45 66.85 43.4C66.85 40.95 64.75 39.2 62.65 39.2H21C18.55 39.2 16.8 41.3 16.8 43.4C16.8 44.45 16.1 45.15 15.05 45.15C14 45.15 13.3 44.45 13.3 43.4C13.3 39.2 16.8 36.05 20.65 36.05H61.9501C66.1501 36.05 69.3 39.2 69.3 43.4C70 44.45 69.3 45.15 68.6 45.15Z" fill="#DDDDDD"/>
<path d="M5.73864 67.9C4.69546 67.9 4 67.2 4 66.15V45.85C4 45.15 4.69546 44.1 5.73864 44.1H17.2137C22.4296 44.1 26.9501 48.3 26.9501 53.55V56.35C26.9501 57.4 26.2546 58.1 25.2115 58.1C24.1683 58.1 23.4728 57.4 23.4728 56.35V53.55C23.4728 50.05 20.4773 47.5 17 47.5H7V66C7 66.7 6.4341 67.9 5.73864 67.9Z" fill="#A1A1A1"/>
<path d="M78.2346 67.9C77.1754 67.9 76.4692 67.2 76.4692 66.15V47.25H66.5831C63.0523 47.25 60.2277 50.05 60.2277 53.55V56.35C60.2277 57.4 59.5216 58.1 58.8154 58.1C57.7562 58.1 57.05 57.4 57.05 56.35V53.55C57.05 48.3 61.287 44.1 66.5831 44.1H78.2346C79.2938 44.1 80 44.8 80 45.85V66.15C80 66.85 79.2938 67.9 78.2346 67.9Z" fill="#A1A1A1"/>
<path d="M55.6502 61.2501H28.0002C25.5502 61.2501 23.4502 59.5001 23.4502 56.7001C23.4502 56.0001 24.1502 54.9501 25.2002 54.9501C26.2502 54.9501 26.9502 55.6501 26.9502 56.7001C26.9502 57.4001 27.6502 58.1001 28.3502 58.1001H55.6502C56.3502 58.1001 57.0502 57.7501 57.0502 56.7001C57.0502 56.0001 57.7502 54.9501 58.8002 54.9501C59.5002 54.9501 60.2002 55.6501 60.2002 56.7001C59.8502 59.1501 58.1002 61.2501 55.6502 61.2501Z" fill="#A1A1A1"/>
<path d="M69.9742 77.35H13.475C8.21112 77.35 4 73.15 4 67.9V62.65C4 61.95 4.70185 60.9 5.75463 60.9C6.45649 60.9 7 61.45 7 62.5V68C7 71.5 9.96576 74.2 13.475 74.2H69.9742C73.4835 74.2 76.2909 71.4 76.2909 67.9V62.65C76.2909 61.95 76.9928 60.9 78.0455 60.9C79.0983 60.9 79.8002 61.6 79.8002 62.65V67.9C79.8002 73.15 75.2381 77.35 69.9742 77.35Z" fill="#A1A1A1"/>
<path d="M78.2488 50C77.1982 50 76.4977 49.3008 76.4977 48.252V16.7886C76.4977 13.2927 73.6959 10.1463 70.1936 10.1463L14 10C10.4977 10 7 13.5041 7 17V48.5C7 49.5488 6.45161 50 5.75115 50C4.70046 50 4 49.3008 4 48.252V16.7886C4 11.5447 8.20276 7 13.4562 7H70.1936C75.447 7 80 11.1951 80 16.7886V48.252C80 49.3008 79.2995 50 78.2488 50Z" fill="#A1A1A1"/>
</svg>
