<svg width="71" height="70" viewBox="0 0 71 70" fill="none" xmlns="http://www.w3.org/2000/svg">
<path d="M27.7016 63.6562H13.6141C7.69251 63.6562 7.60282 54.4469 13.5922 54.4469H27.4391C28.5263 54.4469 29.4078 53.5653 29.4078 52.4781C29.4078 51.3909 28.5263 50.5094 27.4391 50.5094H20.9116V6.34375H54.7631C56.3666 6.34375 57.6725 7.64969 57.6725 9.25313V33.075C57.6725 34.1622 58.5541 35.0438 59.6413 35.0438C60.7284 35.0438 61.61 34.1622 61.61 33.075V9.25313C61.61 5.4775 58.5388 2.40625 54.7631 2.40625H13.6141C8.91094 2.40625 5.08282 6.23438 5.08282 10.9375V53.1169C5.08282 55.09 5.06094 57.0697 5.06094 59.0406C5.06094 63.7569 8.89782 67.5938 13.6141 67.5938H27.7016C28.7888 67.5938 29.6703 66.7122 29.6703 65.625C29.6703 64.5378 28.7888 63.6562 27.7016 63.6562ZM13.6141 6.34375H16.9741V50.5094H13.5922C11.945 50.5094 10.3766 50.9884 9.02032 51.8569V10.9375C9.02032 8.40438 11.0809 6.34375 13.6141 6.34375Z" fill="white"/>
<path d="M29.5325 16.859C28.4453 16.859 27.5638 17.7406 27.5638 18.8278C27.5638 19.9149 28.4453 20.7965 29.5325 20.7965H49.0559C50.1431 20.7965 51.0247 19.9149 51.0247 18.8278C51.0247 17.7406 50.1431 16.859 49.0559 16.859H29.5325Z" fill="white"/>
<path d="M44.0247 28.991C45.1119 28.991 45.9934 28.1094 45.9934 27.0222C45.9934 25.935 45.1119 25.0535 44.0247 25.0535H34.5638C33.4766 25.0535 32.595 25.935 32.595 27.0222C32.595 28.1094 33.4766 28.991 34.5638 28.991H44.0247Z" fill="white"/>
<path d="M50.0709 37.741C41.3209 37.741 34.2028 44.8591 34.2028 53.6091V58.0453V60.4385V62.8316C34.2028 65.4588 36.34 67.5938 38.9672 67.5938H42.1413C44.7684 67.5938 46.9034 65.4566 46.9034 62.8316V58.0453C46.9034 55.4182 44.7663 53.281 42.1413 53.281H38.9672C38.6872 53.281 38.4181 53.3182 38.1534 53.3641C38.2847 46.9 43.5763 41.6785 50.0709 41.6785C56.5678 41.6785 61.8594 46.9 61.9906 53.3641C61.7238 53.3182 61.4547 53.281 61.1769 53.281H58.0028C55.3756 53.281 53.2406 55.4182 53.2406 58.0453V62.8316C53.2406 65.4588 55.3778 67.5938 58.0028 67.5938H61.1769C63.8041 67.5938 65.9413 65.4566 65.9413 62.8316V60.4385V58.0453V53.6091C65.9391 44.8591 58.8209 37.741 50.0709 37.741ZM38.965 57.2185H42.1391C42.5941 57.2185 42.9638 57.5882 42.9638 58.0453V62.8316C42.9638 63.2866 42.5941 63.6563 42.1391 63.6563H38.965C38.51 63.6563 38.1381 63.2866 38.1381 62.8316V60.4385V58.0453C38.1403 57.5903 38.51 57.2185 38.965 57.2185ZM62.0016 62.8316C62.0016 63.2866 61.6319 63.6563 61.1747 63.6563H58.0006C57.5456 63.6563 57.1759 63.2866 57.1759 62.8316V58.0453C57.1759 57.5903 57.5456 57.2185 58.0006 57.2185H61.1747C61.6297 57.2185 62.0016 57.5882 62.0016 58.0453V60.4385V62.8316Z" fill="white"/>
</svg>
