<svg width="32" height="32" viewBox="0 0 32 32" fill="none" xmlns="http://www.w3.org/2000/svg">
<path d="M4.11219 5.26697C4.11219 5.26697 1.20715 5.40645 1.20715 8.78951V26.3761L4.11219 24.3908V5.26697Z" fill="#2BA7A4"/>
<path d="M3.19238 24.3909C2.92558 24.3909 2.66151 24.4446 2.41596 24.549C2.17041 24.6533 1.94841 24.8061 1.76322 24.9981C1.57803 25.1902 1.43345 25.4176 1.33812 25.6668C1.24279 25.916 1.19866 26.1818 1.20838 26.4485C1.24668 27.5243 2.16348 28.3613 3.23991 28.3613H18.0028C18.0405 28.3613 18.0772 28.3492 18.1076 28.327C18.138 28.3047 18.1605 28.2733 18.1719 28.2374C18.1833 28.2015 18.183 28.1629 18.171 28.1271C18.159 28.0914 18.1359 28.0604 18.1051 28.0387C17.7151 27.7556 17.2957 27.2481 17.2957 26.3761C17.2957 24.7463 18.7605 24.3909 18.7605 24.3909H3.19238Z" fill="#EAF5FF"/>
<path d="M4.11219 5.26697H18.7604V24.3908H4.11219V5.26697Z" fill="#2FCDA5"/>
<path d="M29.235 0.941162H17.2915C16.8783 0.941162 16.4821 1.10529 16.1899 1.39744C15.8977 1.68958 15.7336 2.08583 15.7336 2.499V13.744C15.7336 14.1572 15.8977 14.5534 16.1899 14.8455C16.4821 15.1377 16.8783 15.3018 17.2915 15.3018H23.263V19.5872L27.5429 15.3018H29.2345C29.4391 15.3018 29.6417 15.2615 29.8307 15.1832C30.0197 15.1049 30.1914 14.9902 30.3361 14.8455C30.4808 14.7009 30.5955 14.5291 30.6738 14.3401C30.7521 14.1511 30.7924 13.9486 30.7924 13.744V2.499C30.7924 2.08592 30.6283 1.68975 30.3363 1.39761C30.0442 1.10547 29.6481 0.941287 29.235 0.941162Z" fill="#FFB103"/>
<path d="M20.8332 7.01288H19.4625C19.3703 7.01288 19.279 7.03104 19.1938 7.06633C19.1086 7.10161 19.0312 7.15333 18.966 7.21853C18.9008 7.28372 18.8491 7.36113 18.8138 7.44631C18.7785 7.5315 18.7604 7.6228 18.7604 7.715V9.73401C18.7604 9.82622 18.7785 9.91752 18.8138 10.0027C18.8491 10.0879 18.9008 10.1653 18.966 10.2305C19.0312 10.2957 19.1086 10.3474 19.1938 10.3827C19.279 10.418 19.3703 10.4361 19.4625 10.4361H20.8332L21.9326 11.5514C22.0194 11.6395 22.1305 11.6998 22.2517 11.7246C22.3729 11.7494 22.4987 11.7375 22.6132 11.6906C22.7276 11.6437 22.8255 11.5638 22.8944 11.4611C22.9634 11.3584 23.0002 11.2375 23.0002 11.1138V6.33533C23.0002 6.21163 22.9634 6.09072 22.8945 5.98798C22.8256 5.88525 22.7277 5.80534 22.6132 5.75841C22.4988 5.71148 22.3729 5.69965 22.2517 5.72443C22.1305 5.74922 22.0195 5.80949 21.9326 5.89759L20.8332 7.01288Z" fill="white"/>
<path d="M17.1991 26.3761C17.199 26.2501 17.2087 26.1242 17.228 25.9996H3.11529C3.01545 25.9996 2.91969 26.0393 2.84909 26.1099C2.77849 26.1805 2.73882 26.2763 2.73882 26.3761C2.73882 26.476 2.77849 26.5717 2.84909 26.6423C2.91969 26.7129 3.01545 26.7526 3.11529 26.7526H17.2282C17.2088 26.628 17.199 26.5022 17.1991 26.3761Z" fill="#C9D4FF"/>
<path d="M24.5996 9.90111C24.5355 9.90101 24.4724 9.88453 24.4165 9.85323C24.3605 9.82193 24.3134 9.77685 24.2798 9.72226C24.2461 9.66768 24.2269 9.60539 24.2241 9.54132C24.2213 9.47725 24.2348 9.41352 24.2635 9.35617C24.3614 9.15995 24.4123 8.94367 24.4123 8.7244C24.4123 8.50513 24.3614 8.28886 24.2635 8.09264C24.2402 8.04833 24.2259 7.99982 24.2216 7.94994C24.2173 7.90006 24.2229 7.84982 24.2382 7.80215C24.2535 7.75448 24.2782 7.71034 24.3107 7.67231C24.3433 7.63429 24.3831 7.60315 24.4279 7.58071C24.4727 7.55826 24.5214 7.54498 24.5714 7.54162C24.6214 7.53826 24.6715 7.5449 24.7188 7.56115C24.7662 7.57741 24.8098 7.60294 24.8472 7.63626C24.8846 7.66959 24.9149 7.71003 24.9365 7.75522C25.0868 8.05615 25.1651 8.38792 25.1651 8.72431C25.1651 9.06069 25.0868 9.39247 24.9365 9.69339C24.9051 9.75587 24.857 9.80839 24.7975 9.84508C24.738 9.88177 24.6695 9.90117 24.5996 9.90111Z" fill="white"/>
<path d="M25.9482 10.5292C25.8841 10.5292 25.8209 10.5127 25.7649 10.4814C25.7089 10.4501 25.6618 10.405 25.6281 10.3504C25.5944 10.2957 25.5752 10.2334 25.5724 10.1693C25.5696 10.1051 25.5832 10.0414 25.612 9.98397C25.8071 9.59279 25.9086 9.16163 25.9086 8.72449C25.9086 8.28735 25.8071 7.85619 25.612 7.46501C25.5681 7.37585 25.5613 7.27299 25.593 7.17884C25.6247 7.08469 25.6923 7.00689 25.7812 6.96238C25.87 6.91788 25.9728 6.91028 26.0672 6.94124C26.1616 6.97221 26.2399 7.03922 26.2851 7.12769C26.5327 7.62357 26.6616 8.17024 26.6616 8.72449C26.6616 9.27874 26.5327 9.82541 26.2851 10.3213C26.2538 10.3838 26.2057 10.4364 26.1462 10.4731C26.0867 10.5098 26.0182 10.5292 25.9482 10.5292Z" fill="white"/>
<path d="M27.3555 11.1862C27.2913 11.1862 27.2282 11.1697 27.1721 11.1384C27.1161 11.1071 27.069 11.062 27.0353 11.0074C27.0016 10.9528 26.9824 10.8904 26.9796 10.8263C26.9768 10.7622 26.9904 10.6984 27.0192 10.641C27.3162 10.0458 27.4709 9.38974 27.4709 8.72454C27.4709 8.05935 27.3162 7.40326 27.0192 6.80807C26.997 6.76387 26.9838 6.71574 26.9802 6.66643C26.9767 6.61711 26.9829 6.56758 26.9984 6.52066C27.014 6.47373 27.0387 6.43034 27.0711 6.39295C27.1034 6.35556 27.1428 6.32492 27.187 6.30275C27.2312 6.28059 27.2793 6.26735 27.3287 6.26379C27.378 6.26023 27.4275 6.26642 27.4744 6.28201C27.5213 6.29759 27.5647 6.32226 27.6021 6.35461C27.6395 6.38697 27.6702 6.42637 27.6923 6.47057C28.0419 7.17055 28.2239 7.94225 28.2239 8.72468C28.2239 9.50712 28.0419 10.2788 27.6923 10.9788C27.661 11.0412 27.6128 11.0937 27.5533 11.1303C27.4939 11.167 27.4253 11.1863 27.3555 11.1862Z" fill="white"/>
<path d="M3.96536 25.9996H7.00452V28.3613H3.96536V25.9996Z" fill="#C9D4FF"/>
<path d="M4.976 25.9996V31.0588L7.00452 30.1671L9.03313 31.0588V25.9996H4.976Z" fill="#FD4755"/>
</svg>
