<svg width="32" height="32" viewBox="0 0 32 32" fill="none" xmlns="http://www.w3.org/2000/svg">
<path d="M27.224 27.171H9.605C8.53819 27.171 7.67344 26.3062 7.67344 25.2394V1.93156C7.67337 0.864812 8.53819 0 9.605 0H27.224C28.2908 0 29.1556 0.864812 29.1556 1.93156V25.2394C29.1556 26.3062 28.2908 27.171 27.224 27.171Z" fill="#FE646F"/>
<path d="M27.224 0H25.2924C26.3592 0 27.224 0.864812 27.224 1.93156V25.2394C27.224 26.3062 26.3592 27.171 25.2924 27.171H27.224C28.2908 27.171 29.1556 26.3062 29.1556 25.2394V1.93156C29.1556 0.864812 28.2908 0 27.224 0Z" fill="#FD4755"/>
<path d="M10.2489 15.6459V2.833C10.2489 2.69075 10.3642 2.57544 10.5064 2.57544H26.3226C26.4648 2.57544 26.5801 2.69075 26.5801 2.833V15.6459C26.5801 15.7881 26.4648 15.9034 26.3226 15.9034H10.5064C10.3642 15.9034 10.2489 15.7881 10.2489 15.6459Z" fill="#F9F7F8"/>
<path d="M26.5801 19.5734H10.2489C9.98212 19.5734 9.766 19.3572 9.766 19.0905C9.766 18.8239 9.98219 18.6077 10.2489 18.6077H26.5801C26.8469 18.6077 27.063 18.8239 27.063 19.0905C27.063 19.3572 26.8468 19.5734 26.5801 19.5734Z" fill="#FE99A0"/>
<path d="M26.5801 21.5049H10.2489C9.98212 21.5049 9.766 21.2887 9.766 21.0221C9.766 20.7554 9.98219 20.5392 10.2489 20.5392H26.5801C26.8469 20.5392 27.063 20.7554 27.063 21.0221C27.063 21.2887 26.8468 21.5049 26.5801 21.5049Z" fill="#FE99A0"/>
<path d="M26.5801 23.4366H10.2489C9.98212 23.4366 9.766 23.2204 9.766 22.9537C9.766 22.687 9.98219 22.4708 10.2489 22.4708H26.5801C26.8469 22.4708 27.063 22.687 27.063 22.9537C27.063 23.2204 26.8468 23.4366 26.5801 23.4366Z" fill="#FE99A0"/>
<path d="M22.395 32H4.776C3.70919 32 2.84444 31.1352 2.84444 30.0684V6.76054C2.84444 5.69373 3.70925 4.82898 4.776 4.82898H22.395C23.4618 4.82898 24.3266 5.69379 24.3266 6.76054V30.0684C24.3266 31.1352 23.4618 32 22.395 32Z" fill="#FFD15B"/>
<path d="M22.395 4.82898H20.4634C21.5302 4.82898 22.395 5.69379 22.395 6.76054V30.0684C22.395 31.1352 21.5302 32 20.4634 32H22.395C23.4618 32 24.3266 31.1352 24.3266 30.0684V6.76054C24.3266 5.69373 23.4618 4.82898 22.395 4.82898Z" fill="#FFC344"/>
<path d="M5.41987 20.4749V7.66198C5.41987 7.51973 5.53519 7.40442 5.67744 7.40442H21.4936C21.6358 7.40442 21.7511 7.51973 21.7511 7.66198V20.4749C21.7511 20.6171 21.6358 20.7324 21.4936 20.7324H5.67744C5.53519 20.7324 5.41987 20.617 5.41987 20.4749Z" fill="#F9F7F8"/>
<path d="M21.7511 24.4024H5.41987C5.15312 24.4024 4.937 24.1862 4.937 23.9195C4.937 23.6528 5.15319 23.4366 5.41987 23.4366H21.7511C22.0179 23.4366 22.234 23.6528 22.234 23.9195C22.234 24.1861 22.0179 24.4024 21.7511 24.4024Z" fill="#FFF5C6"/>
<path d="M21.7511 26.3339H5.41987C5.15312 26.3339 4.937 26.1177 4.937 25.851C4.937 25.5844 5.15319 25.3682 5.41987 25.3682H21.7511C22.0179 25.3682 22.234 25.5844 22.234 25.851C22.234 26.1177 22.0179 26.3339 21.7511 26.3339Z" fill="#FFF5C6"/>
<path d="M21.7511 28.2656H5.41987C5.15312 28.2656 4.937 28.0494 4.937 27.7827C4.937 27.516 5.15319 27.2998 5.41987 27.2998H21.7511C22.0179 27.2998 22.234 27.516 22.234 27.7827C22.234 28.0493 22.0179 28.2656 21.7511 28.2656Z" fill="#FFF5C6"/>
<path d="M17.8879 30.1972H5.41987C5.15312 30.1972 4.937 29.981 4.937 29.7143C4.937 29.4476 5.15319 29.2314 5.41987 29.2314H17.8879C18.1547 29.2314 18.3708 29.4476 18.3708 29.7143C18.3709 29.981 18.1547 30.1972 17.8879 30.1972Z" fill="#FFF5C6"/>
<path d="M14.2796 10.2514L15.0481 11.8085C15.1608 12.0369 15.3787 12.1953 15.6309 12.2319L17.3492 12.4816C17.9841 12.5739 18.2376 13.3541 17.7782 13.8019L16.5348 15.0139C16.3524 15.1917 16.2691 15.4479 16.3122 15.699L16.6057 17.4104C16.7141 18.0427 16.0504 18.5249 15.4826 18.2263L13.9457 17.4183C13.7202 17.2997 13.4509 17.2997 13.2254 17.4183L11.6885 18.2263C11.1206 18.5249 10.457 18.0427 10.5654 17.4104L10.8589 15.699C10.902 15.4479 10.8187 15.1917 10.6363 15.0139L9.39294 13.8019C8.93356 13.3541 9.18706 12.5739 9.82194 12.4816L11.5402 12.2319C11.7924 12.1953 12.0103 12.0369 12.1231 11.8085L12.8915 10.2514C13.1753 9.67612 13.9957 9.67612 14.2796 10.2514Z" fill="#FFD15B"/>
<path d="M17.7781 13.8017C18.2375 13.3539 17.984 12.5737 17.3491 12.4815L15.6308 12.2318C15.3787 12.1952 15.1607 12.0368 15.048 11.8084L14.2796 10.2513C13.9956 9.676 13.1753 9.676 12.8914 10.2513L12.5197 11.0044L12.9581 11.8928C13.17 12.3221 13.5795 12.6196 14.0532 12.6884C15.2461 12.8618 15.7225 14.3278 14.8592 15.1692C14.5164 15.5034 14.3601 15.9848 14.4409 16.4566L14.6713 17.7996L15.4826 18.2261C16.0504 18.5247 16.7141 18.0424 16.6056 17.4101L16.3121 15.6988C16.2691 15.4477 16.3523 15.1915 16.5347 15.0137L17.7781 13.8017Z" fill="#FFC344"/>
</svg>
