<svg width="71" height="70" viewBox="0 0 71 70" fill="none" xmlns="http://www.w3.org/2000/svg">
<defs>
<linearGradient id="paint0_linear_1228_12338" x1="16.7527" y1="5.91341" x2="62.9267" y2="61.1139" gradientUnits="userSpaceOnUse">
<stop stop-color="#E24C4B"/>
<stop offset="1" stop-color="#B62A2A"/>
</linearGradient>
<clipPath id="clip0_1228_12338">
<rect width="34.023" height="37.4947" fill="white" transform="translate(18.4883 16.3286)"/>
</clipPath>
</defs>
<rect x="0.782715" y="0.358643" width="69.4346" height="69.4346" rx="34.7173" fill="url(#paint0_linear_1228_12338)"/>
<g clip-path="url(#clip0_1228_12338)">
<path d="M49.2147 49.4848C48.059 50.6405 46.1326 50.6405 44.9769 49.4848L35.1531 39.6609L25.3292 49.4848C24.1735 50.6405 22.2471 50.6405 21.0914 49.4848C19.9357 48.3291 19.9357 46.4027 21.0914 45.247L30.9153 35.4231L21.0914 25.5993C19.9357 24.4435 19.9357 22.5172 21.0914 21.3615C22.2471 20.2058 24.1735 20.2058 25.3292 21.3615L35.1531 31.1853L44.9769 21.3615C46.1326 20.2058 48.059 20.2058 49.2147 21.3615C50.3704 22.5172 50.3704 24.4435 49.2147 25.5993L39.3908 35.4231L49.2147 45.247C50.3704 46.4027 50.3704 48.3289 49.2147 49.4848Z" fill="white"/>
</g>
</svg>
