<svg width="71" height="70" viewBox="0 0 71 70" fill="none" xmlns="http://www.w3.org/2000/svg">
<path d="M64.0513 14.9023V9.50195H67.0361V5.40039H64.0513V0H7.03954V5.40039H4.05469V9.50195H7.03954V14.9023H10.1157V55.0977H7.03954V60.498H4.05469V64.5996H7.03954V70H64.0513V64.5996H67.0361V60.498H64.0513V55.0977H60.9751V14.9023H64.0513ZM59.9497 10.8008H55.8711V4.10156H59.9497V10.8008ZM19.3213 10.8008V4.10156H51.7695V10.8008H19.3213ZM11.1411 4.10156H15.2197V10.8008H11.1411V4.10156ZM11.1411 59.1992H15.2197V65.8984H11.1411V59.1992ZM51.7695 59.1992V65.8984H19.3213V59.1992H51.7695ZM59.9497 65.8984H55.8711V59.1992H59.9497V65.8984ZM56.8735 55.0977H14.2173V14.9023H56.8735V55.0977Z" fill="white"/>
<path d="M22.352 36.795L23.3614 40.7705C27.9612 39.6025 31.2521 36.7346 33.4946 33.8924V42.574H27.0704V46.6756H33.4946V50.5859H37.5962V46.675H44.0209V42.5735H37.5962V33.8924C39.8392 36.7346 43.1301 39.6025 47.7299 40.7705L48.7393 36.795C43.5007 35.4646 40.3172 31.0608 38.7316 28.1443H49.6947V24.0427H37.5962V19.4141H33.4946V24.0427H21.3961V28.1443H32.3704C30.796 31.0565 27.6227 35.4566 22.352 36.795Z" fill="white"/>
</svg>
