<svg width="50" height="50" viewBox="0 0 50 50" fill="none" xmlns="http://www.w3.org/2000/svg">
<path d="M25 48C37.7026 48 48 37.7026 48 25C48 12.2975 37.7026 2 25 2C12.2975 2 2 12.2975 2 25C2 37.7026 12.2975 48 25 48Z" fill="#FFEAC7"/>
<path d="M25 43C34.9411 43 43 34.9411 43 25C43 15.0589 34.9411 7 25 7C15.0589 7 7 15.0589 7 25C7 34.9411 15.0589 43 25 43Z" fill="#FFB536"/>
<path d="M25.0039 14.5623C25.2298 14.5627 25.4528 14.6064 25.6611 14.6902L25.8643 14.7869C26.0615 14.8971 26.2356 15.0439 26.377 15.2185L26.5068 15.4031L26.5078 15.405L34.8906 28.8396V28.8406C35.0262 29.0743 35.106 29.3357 35.125 29.6042L35.1299 29.7195C35.1314 29.9897 35.0711 30.2563 34.9541 30.4988L34.9004 30.6013C34.7674 30.8364 34.5822 31.037 34.3604 31.1892L34.2637 31.2517C33.9982 31.4094 33.6955 31.4948 33.3867 31.4998H16.6133C16.3825 31.4962 16.1552 31.4483 15.9443 31.3582L15.7393 31.2537C15.5409 31.1364 15.3678 30.982 15.2295 30.7996L15.1025 30.6072C14.9502 30.3401 14.8702 30.0377 14.8701 29.7302L14.8848 29.5007C14.9144 29.2738 14.9886 29.0544 15.1025 28.8542L23.4971 15.3982V15.3972C23.6164 15.2054 23.7712 15.039 23.9521 14.906L24.1416 14.7839C24.3392 14.6744 24.5556 14.6041 24.7783 14.5759L25.0039 14.5623Z" stroke="white"/>
<path d="M24.3154 24.968L24.1159 21.986C24.0769 21.386 23.8721 20.4162 24.3304 19.9287C24.6791 19.5537 25.5049 19.4892 25.7554 20.009C25.9684 20.6197 26.0155 21.2761 25.8919 21.911L25.6249 24.9807C25.6134 25.2697 25.5501 25.5542 25.4381 25.8207C25.394 25.907 25.3272 25.9795 25.2448 26.0305C25.1624 26.0815 25.0677 26.109 24.9708 26.11C24.8739 26.111 24.7786 26.0855 24.6952 26.0362C24.6118 25.987 24.5435 25.9158 24.4976 25.8305C24.3921 25.5543 24.3306 25.2633 24.3154 24.968ZM25.0061 29.0652C24.7696 29.0639 24.5425 28.9725 24.371 28.8097C24.1995 28.6468 24.0964 28.4247 24.0829 28.1886C24.0693 27.9525 24.1462 27.7201 24.2979 27.5386C24.4497 27.3572 24.6648 27.2404 24.8996 27.212C25.0258 27.1967 25.1537 27.2075 25.2755 27.2436C25.3973 27.2797 25.5105 27.3403 25.608 27.4218C25.7054 27.5034 25.7852 27.604 25.8422 27.7175C25.8993 27.831 25.9325 27.955 25.9398 28.0819C25.9471 28.2087 25.9283 28.3357 25.8846 28.4551C25.8409 28.5744 25.7732 28.6835 25.6857 28.7756C25.5983 28.8678 25.4928 28.941 25.3759 28.9908C25.259 29.0406 25.1332 29.0659 25.0061 29.0652Z" fill="white"/>
</svg>
