<svg width="50" height="50" viewBox="0 0 50 50" fill="none" xmlns="http://www.w3.org/2000/svg">
<circle cx="25" cy="25" r="23" fill="#FFD7D7"/>
<path fill-rule="evenodd" clip-rule="evenodd" d="M25 7C34.9394 7 43 15.0606 43 25C43 34.9394 34.9394 43 25 43C15.0606 43 7 34.9394 7 25C7 15.0606 15.0606 7 25 7ZM23.0716 26.5489V17.2845C23.0716 16.2225 23.9379 15.3561 25 15.3561C26.0621 15.3561 26.9284 16.2305 26.9284 17.2845V26.5489C26.9284 27.6029 26.0621 28.4773 25 28.4773C23.9379 28.4773 23.0716 27.611 23.0716 26.5489ZM24.9917 30.5456C26.1986 30.5456 27.1775 31.5245 27.1775 32.7312C27.1775 33.9382 26.1986 34.917 24.9917 34.917C23.7849 34.917 22.806 33.9382 22.806 32.7312C22.806 31.5245 23.7849 30.5456 24.9917 30.5456Z" fill="#FF0000"/>
</svg>
