<svg width="50" height="50" viewBox="0 0 50 50" fill="none" xmlns="http://www.w3.org/2000/svg">
<path d="M25 48C37.7026 48 48 37.7026 48 25C48 12.2975 37.7026 2 25 2C12.2975 2 2 12.2975 2 25C2 37.7026 12.2975 48 25 48Z" fill="#E2FFDA"/>
<path d="M25 43C34.9411 43 43 34.9411 43 25C43 15.0589 34.9411 7 25 7C15.0589 7 7 15.0589 7 25C7 34.9411 15.0589 43 25 43Z" fill="#48B02C"/>
<path fill-rule="evenodd" clip-rule="evenodd" d="M21.7953 29.791L32.5709 19.0155C32.8883 18.698 33.4096 18.7012 33.7239 19.0155L34.7643 20.0559C35.0786 20.3702 35.0786 20.8947 34.7643 21.2089L23.9888 31.9845C23.6745 32.2988 23.1532 32.3021 22.8357 31.9845L21.7953 30.9441C21.4777 30.6266 21.4777 30.1086 21.7953 29.791Z" fill="white"/>
<path fill-rule="evenodd" clip-rule="evenodd" d="M18.4297 23.2234L24.9937 29.7874C25.3111 30.105 25.3074 30.6268 24.9937 30.9405L23.9533 31.9809C23.6396 32.2945 23.1139 32.2945 22.8001 31.9809L16.2362 25.417C15.9225 25.1032 15.9188 24.5814 16.2362 24.2638L17.2766 23.2234C17.5941 22.906 18.1121 22.906 18.4297 23.2234Z" fill="white"/>
</svg>
