<svg width="20" height="20" viewBox="0 0 20 20" fill="none" xmlns="http://www.w3.org/2000/svg">
<path d="M4.875 3.48214V0H11.8393V3.48214C11.8393 3.66685 11.7659 3.84399 11.6353 3.97459C11.5047 4.1052 11.3276 4.17857 11.1429 4.17857H5.57143C5.38672 4.17857 5.20959 4.1052 5.07898 3.97459C4.94837 3.84399 4.875 3.66685 4.875 3.48214ZM4.17857 19.5H15.3214V17.1043H4.17857V19.5ZM4.17857 15.7114H15.3214V14.3186H4.17857V15.7114ZM18.8036 4.66607L15.5791 0.759107C15.3833 0.521989 15.1376 0.331006 14.8596 0.199787C14.5815 0.0685691 14.2778 0.000350436 13.9704 0H13.2321V3.48214C13.2321 4.03626 13.012 4.56767 12.6202 4.95949C12.2284 5.35131 11.697 5.57143 11.1429 5.57143H5.57143C5.01732 5.57143 4.4859 5.35131 4.09408 4.95949C3.70226 4.56767 3.48214 4.03626 3.48214 3.48214V0H2.08929C1.53517 0 1.00375 0.220121 0.611938 0.611938C0.220121 1.00375 0 1.53517 0 2.08929V17.4107C0 17.9648 0.220121 18.4962 0.611938 18.8881C1.00375 19.2799 1.53517 19.5 2.08929 19.5H2.78571V12.5357C2.78571 11.9816 3.00584 11.4502 3.39765 11.0584C3.78947 10.6665 4.32089 10.4464 4.875 10.4464H14.625C15.1791 10.4464 15.7105 10.6665 16.1023 11.0584C16.4942 11.4502 16.7143 11.9816 16.7143 12.5357V19.5H17.4107C17.9648 19.5 18.4962 19.2799 18.8881 18.8881C19.2799 18.4962 19.5 17.9648 19.5 17.4107V6.21214C19.4984 5.92007 19.4356 5.63158 19.3157 5.36528C19.1957 5.09898 19.0213 4.86078 18.8036 4.66607ZM14.625 11.8393H4.875C4.6903 11.8393 4.51316 11.9127 4.38255 12.0433C4.25195 12.1739 4.17857 12.351 4.17857 12.5357V12.9257H15.3214V12.5357C15.3214 12.351 15.2481 12.1739 15.1175 12.0433C14.9868 11.9127 14.8097 11.8393 14.625 11.8393Z" fill="white"/>
</svg>
