<svg width="32" height="32" viewBox="0 0 32 32" fill="none" xmlns="http://www.w3.org/2000/svg">
<path d="M16.6933 4.33337C16.0267 4.33337 15.36 4.56004 14.84 4.98671L8.98667 9.66671H6.66667C4.64 9.66671 3 11.3067 3 13.3334V18.6667C3 20.6934 4.64 22.3334 6.66667 22.3334H8.98667L14.84 27.0134C15.36 27.4267 16.0267 27.6667 16.6933 27.6667C18.3333 27.6667 19.6667 26.3334 19.6667 24.6934V7.30671C19.6667 5.66671 18.3333 4.33337 16.6933 4.33337ZM5 18.6667V13.3334C5 12.4134 5.74667 11.6667 6.66667 11.6667H8.33333V20.3334H6.66667C5.74667 20.3334 5 19.5867 5 18.6667ZM17.6667 24.6934C17.6667 25.2267 17.2267 25.6667 16.6933 25.6667C16.4667 25.6667 16.2533 25.5867 16.08 25.4534L10.3333 20.8534V11.1467L16.08 6.54671C16.2533 6.41337 16.4667 6.33337 16.6933 6.33337C17.2267 6.33337 17.6667 6.77337 17.6667 7.30671V24.6934Z" fill="#34C3DF"/>
<path d="M23.3866 11.7866C23.0133 11.3733 22.3866 11.3466 21.9733 11.72C21.56 12.0933 21.5333 12.72 21.9066 13.1333C22.6133 13.92 23.0133 14.9466 23.0133 16.0133C23.0133 17.1466 22.5733 18.2266 21.7866 19.04C21.4 19.44 21.4133 20.0666 21.8133 20.4533C22.0133 20.64 22.2533 20.7333 22.5066 20.7333C22.7599 20.7333 23.0266 20.6266 23.2266 20.4266C24.3866 19.24 25.0133 17.6666 25.0133 16.0133C25.0133 14.4533 24.4399 12.96 23.3999 11.8L23.3866 11.7866Z" fill="#34C3DF"/>
<path d="M26.4133 9.17338C26.0399 8.76005 25.4133 8.72005 24.9999 9.09338C24.5866 9.46672 24.5599 10.0934 24.9199 10.5067C26.2666 12.0001 26.9999 13.9601 26.9999 16C26.9999 18.04 26.2399 20.0534 24.8533 21.5734C24.4799 21.9867 24.5066 22.6134 24.9199 22.9867C25.1066 23.16 25.3466 23.2534 25.5999 23.2534C25.8666 23.2534 26.1466 23.1467 26.3333 22.9334C28.0533 21.0401 29.0133 18.5867 29.0133 16C29.0133 13.4134 28.0933 11.0401 26.4266 9.17338H26.4133Z" fill="#34C3DF"/>
</svg>
