<svg width="27" height="27" viewBox="0 0 27 27" fill="none" xmlns="http://www.w3.org/2000/svg">
<path d="M26.52 2.33998V24.66C26.52 25.1533 26.324 25.6264 25.9752 25.9752C25.6264 26.324 25.1533 26.52 24.66 26.52H23.42C22.9267 26.52 22.4536 26.324 22.1048 25.9752C21.756 25.6264 21.56 25.1533 21.56 24.66V2.33998C21.56 1.84668 21.756 1.37358 22.1048 1.02476C22.4536 0.675944 22.9267 0.47998 23.42 0.47998H24.66C25.1533 0.47998 25.6264 0.675944 25.9752 1.02476C26.324 1.37358 26.52 1.84668 26.52 2.33998ZM18.026 11.4912L4.49761 1.09998C4.13613 0.827617 3.707 0.659369 3.25673 0.613468C2.80646 0.567566 2.35221 0.645761 1.94321 0.83958C1.51776 1.04506 1.15985 1.36779 0.911617 1.7698C0.663383 2.17181 0.53515 2.63636 0.54201 3.10878V23.8912C0.539113 24.3518 0.664533 24.804 0.904214 25.1973C1.14389 25.5906 1.48837 25.9094 1.89903 26.118C2.30969 26.3265 2.77032 26.4166 3.22929 26.3781C3.68825 26.3396 4.12743 26.174 4.49761 25.9L18.026 15.5212C18.3347 15.2838 18.5847 14.9786 18.7568 14.6292C18.9288 14.2799 19.0183 13.8956 19.0183 13.5062C19.0183 13.1167 18.9288 12.7325 18.7568 12.3831C18.5847 12.0338 18.3347 11.7286 18.026 11.4912Z" fill="#9D9D9D"/>
</svg>
