<svg width="112" height="111" viewBox="0 0 112 111" fill="none" xmlns="http://www.w3.org/2000/svg">
<g filter="url(#filter0_d_747_2590)">
<rect x="12" y="7" width="88" height="88" rx="44" fill="url(#paint0_linear_747_2590)" shape-rendering="crispEdges"/>
<path d="M47.495 68.5C49.6069 68.5 51.325 66.7819 51.325 64.67V37.33C51.325 35.2181 49.6069 33.5 47.495 33.5C45.3832 33.5 43.665 35.2181 43.665 37.33V64.67C43.665 66.7819 45.3832 68.5 47.495 68.5Z" fill="#8A8A8A"/>
<path d="M68.3357 64.67V37.33C68.3357 35.2181 66.6175 33.5 64.5057 33.5C62.3938 33.5 60.6757 35.2181 60.6757 37.33V64.67C60.6757 66.7819 62.3938 68.5 64.5057 68.5C66.6175 68.5 68.3357 66.7819 68.3357 64.67Z" fill="#8A8A8A"/>
</g>
<defs>
<filter id="filter0_d_747_2590" x="0" y="0" width="112" height="112" filterUnits="userSpaceOnUse" color-interpolation-filters="sRGB">
<feFlood flood-opacity="0" result="BackgroundImageFix"/>
<feColorMatrix in="SourceAlpha" type="matrix" values="0 0 0 0 0 0 0 0 0 0 0 0 0 0 0 0 0 0 127 0" result="hardAlpha"/>
<feOffset dy="5"/>
<feGaussianBlur stdDeviation="6"/>
<feComposite in2="hardAlpha" operator="out"/>
<feColorMatrix type="matrix" values="0 0 0 0 0.624962 0 0 0 0 0.624962 0 0 0 0 0.624962 0 0 0 0.3 0"/>
<feBlend mode="normal" in2="BackgroundImageFix" result="effect1_dropShadow_747_2590"/>
<feBlend mode="normal" in="SourceGraphic" in2="effect1_dropShadow_747_2590" result="shape"/>
</filter>
<linearGradient id="paint0_linear_747_2590" x1="87.1125" y1="19.8875" x2="24.8875" y2="82.1125" gradientUnits="userSpaceOnUse">
<stop stop-color="#E7E7E7"/>
<stop offset="1" stop-color="#D9D9D9"/>
</linearGradient>
</defs>
</svg>
