<svg width="27" height="27" viewBox="0 0 27 27" fill="none" xmlns="http://www.w3.org/2000/svg">
<path d="M0.479994 2.33998V24.66C0.479994 25.1533 0.675959 25.6264 1.02477 25.9752C1.37359 26.324 1.84669 26.52 2.33999 26.52H3.57999C4.0733 26.52 4.54639 26.324 4.89521 25.9752C5.24403 25.6264 5.43999 25.1533 5.43999 24.66V2.33998C5.43999 1.84668 5.24403 1.37358 4.89521 1.02476C4.54639 0.675944 4.0733 0.47998 3.57999 0.47998H2.33999C1.84669 0.47998 1.37359 0.675944 1.02477 1.02476C0.675959 1.37358 0.479994 1.84668 0.479994 2.33998ZM8.97399 11.4912L22.5024 1.09998C22.8639 0.827617 23.293 0.659369 23.7433 0.613468C24.1935 0.567566 24.6478 0.645761 25.0568 0.83958C25.4822 1.04506 25.8401 1.36779 26.0884 1.7698C26.3366 2.17181 26.4649 2.63636 26.458 3.10878V23.8912C26.4609 24.3518 26.3355 24.804 26.0958 25.1973C25.8561 25.5906 25.5116 25.9094 25.101 26.118C24.6903 26.3265 24.2297 26.4166 23.7707 26.3781C23.3117 26.3396 22.8726 26.174 22.5024 25.9L8.97399 15.5212C8.66529 15.2838 8.41527 14.9786 8.24321 14.6292C8.07116 14.2799 7.98168 13.8956 7.98168 13.5062C7.98168 13.1167 8.07116 12.7325 8.24321 12.3831C8.41527 12.0338 8.66529 11.7286 8.97399 11.4912Z" fill="#9D9D9D"/>
</svg>
